<svg width="17" height="22" viewBox="0 0 17 22" fill="none" xmlns="http://www.w3.org/2000/svg">
<path fill-rule="evenodd" clip-rule="evenodd" d="M3.92504 13.29C4.09519 13.2998 4.26001 13.3528 4.40387 13.4442C4.54774 13.5355 4.66586 13.6622 4.74705 13.812L6.63904 17.305C6.79878 17.6004 6.87314 17.9344 6.8538 18.2697C6.83446 18.6049 6.72218 18.9282 6.52953 19.2032C6.33688 19.4783 6.07147 19.6943 5.76302 19.8271C5.45457 19.9599 5.11524 20.0041 4.78304 19.955L0.853045 19.373C0.684433 19.3479 0.525024 19.2802 0.389955 19.1762C0.254886 19.0722 0.148642 18.9354 0.081312 18.7788C0.0139821 18.6222 -0.0121983 18.451 0.00525693 18.2815C0.0227122 18.1119 0.0832237 17.9496 0.181045 17.81L0.804045 16.92L0.630045 15.936C0.607161 15.8066 0.609987 15.674 0.638364 15.5458C0.66674 15.4175 0.72011 15.2961 0.795423 15.1885C0.870737 15.0808 0.966518 14.9891 1.0773 14.9185C1.18807 14.8479 1.31168 14.7998 1.44105 14.777L2.42604 14.604L3.04904 13.714C3.14675 13.5744 3.27851 13.4621 3.43183 13.3877C3.58514 13.3133 3.75492 13.2793 3.92504 13.289V13.29ZM10.272 13.266C10.4029 13.1955 10.5478 13.1551 10.6962 13.1477C10.8446 13.1402 10.9928 13.166 11.13 13.223L11.246 13.28L12.186 13.823L13.152 13.564C13.3887 13.5006 13.6404 13.5262 13.8594 13.6361C14.0784 13.7459 14.2494 13.9324 14.34 14.16L14.377 14.271L14.636 15.237L15.576 15.78C15.7143 15.8597 15.8314 15.9714 15.9177 16.1057C16.004 16.2399 16.0568 16.3929 16.0719 16.5518C16.087 16.7106 16.0638 16.8708 16.0043 17.0189C15.9449 17.167 15.8508 17.2987 15.73 17.403L15.627 17.481L12.312 19.669C12.0429 19.8467 11.7311 19.9492 11.409 19.9659C11.0869 19.9826 10.7662 19.9129 10.4801 19.764C10.1941 19.6151 9.95298 19.3924 9.78188 19.119C9.61079 18.8456 9.5159 18.5314 9.50704 18.209L9.51005 18.051L9.74804 14.086C9.75834 13.916 9.81187 13.7515 9.90357 13.608C9.99528 13.4645 10.1221 13.3468 10.272 13.266ZM7.66105 0C8.72191 0 9.73933 0.421427 10.4895 1.17157C11.2396 1.92172 11.661 2.93913 11.661 4V5C11.661 6.214 12.163 7.267 12.827 8.354L13.563 9.519C13.663 9.679 13.758 9.834 13.843 9.976C14.163 10.517 14.471 11.116 14.631 11.757C14.74 12.2022 14.805 12.6571 14.825 13.115C14.5766 12.867 14.2673 12.6888 13.9282 12.5982C13.589 12.5076 13.232 12.5079 12.893 12.599L12.328 12.75L11.746 12.414C11.4508 12.2436 11.1168 12.1515 10.7759 12.1465C10.4351 12.1415 10.0986 12.2237 9.79839 12.3853C9.49821 12.5469 9.24433 12.7826 9.06085 13.0699C8.87737 13.3572 8.77038 13.6867 8.75004 14.027L8.51204 17.992C8.49104 18.337 8.53405 18.676 8.63305 18.995L8.36405 19H7.95805C7.88205 19 7.80671 18.9987 7.73205 18.996C7.95205 18.286 7.88405 17.504 7.51805 16.829L5.62704 13.336C5.46473 13.0362 5.22848 12.7829 4.94072 12.6001C4.65296 12.4173 4.32326 12.3111 3.9829 12.2915C3.64255 12.272 3.30286 12.3398 2.99607 12.4885C2.68929 12.6371 2.4256 12.8618 2.23004 13.141L1.84504 13.691L1.51504 13.749C1.48136 13.3626 1.48941 12.9737 1.53904 12.589C1.57604 12.304 1.62505 12.022 1.69105 11.757C1.88905 10.965 2.22604 10.298 2.54804 9.737L2.98504 8.997C3.40104 8.28 3.66104 7.722 3.66104 7V4C3.66104 2.93913 4.08247 1.92172 4.83262 1.17157C5.58276 0.421427 6.60018 0 7.66105 0ZM6.22305 5.778L5.40104 6.188C5.62504 6.785 5.97305 7.344 6.29805 7.788L6.50204 8.057L6.68604 8.282L6.76705 8.376L7.01705 8.235L7.34605 8.038C7.52205 7.929 7.71405 7.806 7.91205 7.671C8.51605 7.259 9.13705 6.761 9.57405 6.244L7.25805 5.664C6.9105 5.57719 6.54337 5.61763 6.22305 5.778Z" fill="black"/>
</svg>
