<svg width="22" height="17" viewBox="0 0 22 17" fill="none" xmlns="http://www.w3.org/2000/svg">
<path d="M21.805 13.011C21.375 13.554 20.322 13.941 20.322 13.941L12.49 16.758V14.68L18.254 12.623C18.908 12.389 19.008 12.057 18.477 11.883C17.946 11.709 16.985 11.758 16.33 11.994L12.49 13.348V11.193L12.711 11.117C12.711 11.117 13.821 10.724 15.381 10.551C16.942 10.379 18.853 10.575 20.353 11.144C22.043 11.679 22.233 12.468 21.805 13.011ZM13.235 9.473V4.162C13.235 3.538 13.12 2.964 12.535 2.802C12.088 2.658 11.81 3.074 11.81 3.697V17L8.22698 15.861V0C9.74998 0.283 11.97 0.953 13.163 1.355C16.198 2.398 17.227 3.697 17.227 6.622C17.227 9.473 15.469 10.554 13.235 9.474M1.65198 14.464C-0.0840236 13.974 -0.373024 12.954 0.417976 12.367C1.14898 11.825 2.39298 11.417 2.39298 11.417L7.53098 9.587V11.673L3.83298 12.998C3.17998 13.232 3.07998 13.564 3.60998 13.738C4.14198 13.913 5.10298 13.863 5.75698 13.628L7.53098 12.984V14.849L7.17698 14.909C5.40298 15.199 3.51398 15.078 1.65198 14.464Z" fill="black"/>
</svg>
