<svg width="20" height="20" viewBox="0 0 20 20" fill="none" xmlns="http://www.w3.org/2000/svg">
<path d="M2.98401 2.876L2.97501 2.885C2.03106 3.81365 1.28176 4.9212 0.770937 6.14288C0.260117 7.36456 -0.00196877 8.67583 1.11345e-05 10C-0.00172353 12.1883 0.716536 14.3164 2.04401 16.056C2.05701 16.074 2.07801 16.084 2.09801 16.074C2.11601 16.063 2.11601 16.041 2.10901 16.022C1.34701 13.665 5.24401 7.952 7.25701 5.556C7.26159 5.55259 7.26539 5.54824 7.26815 5.54323C7.27091 5.53823 7.27257 5.5327 7.27301 5.527C7.27301 5.514 7.26401 5.503 7.25501 5.495C3.86701 2.124 2.96401 2.895 2.97501 2.884M17.018 2.875L17.027 2.885C17.9706 3.81381 18.7195 4.92144 19.23 6.14311C19.7405 7.36478 20.0023 8.67597 20 10C20.002 12.1886 19.2837 14.3171 17.956 16.057C17.944 16.074 17.922 16.084 17.902 16.074C17.885 16.064 17.884 16.042 17.891 16.023C18.653 13.665 14.759 7.948 12.746 5.552C12.7367 5.54333 12.732 5.53433 12.732 5.525C12.7333 5.509 12.7397 5.49733 12.751 5.49C16.139 2.119 17.037 2.895 17.025 2.885M10 0C12.018 0 13.678 0.553 15.209 1.464C15.228 1.473 15.234 1.494 15.227 1.513C15.218 1.531 15.198 1.535 15.178 1.53C13.243 1.112 10.3 2.785 10.022 2.951C10.013 2.955 10.009 2.96 10.001 2.96C9.99235 2.95867 9.98501 2.95567 9.97901 2.951C9.24101 2.527 6.52101 1.102 4.80801 1.54C4.78901 1.545 4.76801 1.541 4.76001 1.522C4.75101 1.504 4.76001 1.483 4.77701 1.473C6.30801 0.553 7.99001 0 10.002 0M10.002 8.02C10.014 8.02 10.026 8.029 10.034 8.035C13.026 10.311 18.148 15.935 16.585 17.526C14.7648 19.1235 12.4248 20.003 10.003 20C7.58051 20.0035 5.23978 19.1239 3.41901 17.526C1.85801 15.935 6.97901 10.311 9.96901 8.035C9.97801 8.029 9.99101 8.02 10.004 8.02" fill="black"/>
</svg>
