<svg width="16" height="16" viewBox="0 0 16 16" fill="none" xmlns="http://www.w3.org/2000/svg">
<path d="M11.6707 10.299C11.5156 10.1436 11.3975 9.95525 11.3252 9.74795C11.1534 9.25554 11.2848 8.72525 11.5446 8.27308C11.9222 7.61602 11.8925 7.0641 11.8925 5.94626C11.8925 2.66209 9.23042 0 5.94626 0C2.66209 0 0 2.66209 0 5.94626C0 9.23042 2.66209 11.8925 5.94626 11.8925C7.07726 11.8925 7.68177 11.907 8.37369 11.5077C8.81397 11.2536 9.33803 11.1407 9.809 11.332C9.97657 11.4 10.1288 11.5009 10.2569 11.6287L13.9547 15.3192C14.3316 15.6953 14.942 15.695 15.3185 15.3185C15.695 14.942 15.6953 14.3316 15.3192 13.9547L11.6707 10.299ZM5.94626 10.0629C3.66838 10.0629 1.82962 8.22413 1.82962 5.94626C1.82962 3.66838 3.66838 1.82962 5.94626 1.82962C8.22413 1.82962 10.0629 3.66838 10.0629 5.94626C10.0629 8.22413 8.22413 10.0629 5.94626 10.0629Z" fill="currentColor"/>
</svg>
