<svg width="19" height="16" viewBox="0 0 19 16" fill="none" xmlns="http://www.w3.org/2000/svg">
<path d="M10.0455 11.9074C10.0455 11.0766 10.0648 10.2459 10.039 9.41644C10.0197 8.76722 9.84319 8.1448 9.56232 7.54917C9.24151 6.86706 8.76868 6.29823 8.16185 5.82563C8.1013 5.77813 8.02528 5.72453 8.06265 5.63927C8.09486 5.56375 8.18375 5.57471 8.25333 5.57471C9.12298 5.57349 9.99393 5.57471 10.8636 5.57471C11.0195 5.57471 11.1303 5.64658 11.2359 5.74889C11.7989 6.2958 12.4779 6.62833 13.2625 6.82443C13.6761 6.92797 14.0781 6.92553 14.4891 6.93649C14.712 6.94258 14.9361 6.94624 15.141 6.83296C15.1861 6.80738 15.2492 6.80373 15.3033 6.80494C15.4025 6.80616 15.5262 6.76231 15.5894 6.86463C15.6422 6.95111 15.543 7.0181 15.4992 7.08266C15.1487 7.61495 14.9954 8.19717 15.0882 8.81351C15.1835 9.44933 15.4811 9.9938 16.0197 10.4189C16.5402 10.8294 17.1161 11.045 17.7963 11.0048C17.8917 10.9987 17.9883 11.0036 18.0837 11.0048C18.3993 11.0097 18.4431 11.0486 18.4444 11.3495C18.447 12.369 18.447 13.3873 18.4444 14.4068C18.4431 14.8392 18.2254 15.039 17.768 15.0402C17.4485 15.0414 17.129 15.0402 16.8095 15.0402C16.4036 15.039 16.383 15.0183 16.3817 14.6248C16.3817 13.8782 16.3817 13.1303 16.3804 12.3836C16.3804 12.224 16.3753 12.0657 16.2619 11.9317C16.1382 11.7856 16.0055 11.6552 15.78 11.71C15.57 11.7612 15.3536 11.9829 15.3394 12.1705C15.3291 12.3057 15.333 12.4421 15.333 12.5773C15.333 13.2643 15.3343 13.9512 15.3317 14.6382C15.3304 14.9403 15.2685 15.0036 14.9555 15.0049C13.4622 15.0085 11.969 15.0085 10.4771 15.0049C10.1202 15.0049 10.0493 14.9293 10.0493 14.5822C10.0467 13.6918 10.0493 12.8014 10.0493 11.9098L10.0455 11.9074Z" fill="currentColor"/>
<path d="M8.9021 11.91C8.9021 12.8308 8.90338 13.7516 8.9021 14.6737C8.9021 15.0062 8.86731 15.0391 8.51816 15.0391C6.98499 15.0391 5.45182 15.0391 3.91865 15.0391C3.57207 15.0391 3.54244 15.0099 3.54115 14.6701C3.53986 13.9222 3.53729 13.1755 3.54115 12.4276C3.54115 12.2474 3.50121 12.0829 3.40201 11.9319C3.30409 11.7833 3.17525 11.6603 2.97426 11.7029C2.74493 11.7516 2.60836 11.9124 2.54781 12.1195C2.52075 12.212 2.5272 12.3143 2.5272 12.4118C2.52591 13.1743 2.5272 13.9368 2.52462 14.6993C2.52462 14.9989 2.4821 15.0355 2.1613 15.0379C1.79411 15.0403 1.42692 15.0428 1.05973 15.0379C0.682237 15.0318 0.467078 14.8296 0.465789 14.4703C0.461924 13.4203 0.461924 12.3716 0.465789 11.3216C0.465789 11.0512 0.516036 11.0147 0.805922 11.0025C1.19244 10.9867 1.57766 11.0342 1.9616 10.8904C2.64444 10.6359 3.20875 10.2668 3.54888 9.63585C4.01012 8.782 3.93153 7.95007 3.43937 7.13154C3.38783 7.0475 3.24869 6.95614 3.32986 6.85626C3.42133 6.7442 3.60042 6.771 3.70993 6.82216C4.06166 6.98172 4.42884 6.92691 4.79217 6.93666C5.44537 6.95614 6.04447 6.76491 6.61265 6.48354C7.07131 6.25698 7.16407 6.26429 7.54672 6.59195C7.86495 6.86479 8.08526 7.20828 8.31202 7.54203C8.72559 8.15105 8.924 8.82098 8.90596 9.55425C8.88663 10.3387 8.9021 11.1243 8.9021 11.91V11.91Z" fill="currentColor"/>
<path d="M4.67715 0C6.45898 0.00609025 7.82595 1.35691 7.84012 2.97935C7.85429 4.57865 6.41517 6.00986 4.6385 5.97332C2.85667 5.93678 1.50387 4.66513 1.5 2.9891C1.49743 1.32158 2.81802 0.023143 4.67715 0Z" fill="currentColor"/>
<path d="M14.2495 3.29287e-06C16.0558 0.0255824 17.424 1.3496 17.415 2.98057C17.406 4.62738 16.0622 5.97089 14.2095 5.97454C12.5437 5.97698 11.0272 4.64443 11.0672 2.90018C11.1045 1.34717 12.4844 -0.00243281 14.2495 3.29287e-06Z" fill="currentColor"/>
<path d="M18.91 8.70539C18.91 8.92464 18.9139 9.14267 18.91 9.36192C18.8997 9.75779 18.6356 9.99043 18.2169 10.0111C17.7298 10.0355 17.2686 9.9746 16.8357 9.74926C16.7365 9.6981 16.6399 9.64573 16.5639 9.56899C15.6762 8.67738 16.0279 7.50439 17.1423 7.04519C17.8084 6.77113 18.5673 7.07199 18.8314 7.67614C18.8817 7.79063 18.9087 7.90513 18.91 8.02694C18.91 8.25349 18.91 8.48005 18.91 8.70661V8.70539Z" fill="currentColor"/>
<path d="M0.972726 10.0071C0.65965 10.0095 0.386514 10.0436 0.179085 9.80855C0.0708609 9.68553 0 9.56372 0 9.40416C0.00128838 8.95957 -0.00128838 8.51498 0.00257676 8.06917C0.00901865 7.25186 0.948247 6.72445 1.729 7.02652C2.38092 7.27866 2.88597 7.90961 2.82155 8.58563C2.77259 9.09843 2.40412 9.75008 1.6968 9.89138C1.4417 9.94253 1.19819 10.0388 0.974015 10.0071H0.972726Z" fill="currentColor"/>
</svg>
