<svg width="17" height="15" viewBox="0 0 17 15" fill="none" xmlns="http://www.w3.org/2000/svg">
<path d="M3.94961 14.9807C5.26129 14.9807 6.32461 13.9173 6.32461 12.6057V11.2336C6.32461 10.1843 7.17527 9.33359 8.22461 9.33359C9.27395 9.33359 10.1246 10.1843 10.1246 11.2336V12.6057C10.1246 13.9173 11.1879 14.9807 12.4996 14.9807C13.8113 14.9807 14.8746 13.9173 14.8746 12.6057V8.23763C14.8746 7.80332 15.2267 7.45124 15.661 7.45124C16.3835 7.45124 16.7236 6.55873 16.1844 6.07789L10.2211 0.76084C9.08341 -0.253606 7.36581 -0.253605 6.22808 0.760841L0.264859 6.07789C-0.274414 6.55873 0.0657049 7.45124 0.788214 7.45124C1.22253 7.45124 1.57461 7.80332 1.57461 8.23763V12.6057C1.57461 13.9173 2.63793 14.9807 3.94961 14.9807Z" fill="#48BCF9"/>
</svg>
