<svg width="34" height="37" viewBox="0 0 34 37" fill="none" xmlns="http://www.w3.org/2000/svg">
<path d="M21.1895 27.5737C22.8366 27.5737 24.3825 27.1457 25.7193 26.3967C23.9961 27.7288 21.8257 28.5229 19.4676 28.5229C13.8617 28.5229 9.31696 24.0356 9.31696 18.5006C9.31696 12.9657 13.8617 8.47843 19.4676 8.47843C21.8257 8.47843 23.9961 9.27255 25.7193 10.6046C24.3825 9.85553 22.8372 9.4276 21.1895 9.4276C16.1142 9.4276 11.9997 13.4895 11.9997 18.5013C11.9997 23.513 16.1136 27.5749 21.1895 27.5749V27.5737ZM4.9534 18.5C4.9534 9.25 12.5478 1.75166 21.9163 1.75166C24.9567 1.75166 27.8095 2.54126 30.2771 3.9242C27.0958 1.46532 23.0901 0 18.7369 0C8.38888 0 0 8.2828 0 18.5C0 28.7172 8.38888 37 18.7369 37C23.0901 37 27.0958 35.5347 30.2771 33.0758C27.8095 34.4587 24.9567 35.2483 21.9163 35.2483C12.5478 35.2483 4.9534 27.75 4.9534 18.5ZM18.752 30.1523C16.6363 30.1523 14.6517 29.6027 12.935 28.6407C15.1484 30.3511 17.9353 31.3711 20.9641 31.3711C28.1634 31.3711 34 25.6083 34 18.5C34 11.3917 28.1634 5.62891 20.9641 5.62891C17.9353 5.62891 15.1484 6.64826 12.935 8.35934C14.6517 7.39728 16.6363 6.84772 18.752 6.84772C25.2696 6.84772 30.5535 12.0648 30.5535 18.5C30.5535 24.9352 25.2696 30.1523 18.752 30.1523Z" fill="url(#paint0_linear_3460_9072)"/>
<defs>
<linearGradient id="paint0_linear_3460_9072" x1="5.43898" y1="5.46675" x2="31.5034" y2="31.865" gradientUnits="userSpaceOnUse">
<stop stop-color="#CAE9EB"/>
<stop offset="0.91" stop-color="#B5B5D8"/>
<stop offset="1" stop-color="#B3B0D7"/>
</linearGradient>
</defs>
</svg>
