<svg width="216" height="42" viewBox="0 0 216 42" fill="none" xmlns="http://www.w3.org/2000/svg">
<path d="M38.2473 25.125C38.2473 27.4643 37.8381 29.6161 37.0196 31.5804C36.2188 33.5446 35.1068 35.2411 33.6833 36.6696C32.2598 38.0804 30.5694 39.1875 28.6121 39.991C26.6548 40.7947 24.5285 41.1964 22.2331 41.1964H3.49648C2.99821 41.1964 2.53563 41.1071 2.10858 40.9286C1.68154 40.75 1.30779 40.5089 0.987502 40.2053C0.685068 39.8839 0.444811 39.509 0.266904 39.0804C0.0889964 38.6518 0 38.1875 0 37.6875V6.29469C0 5.81246 0.0889964 5.35714 0.266904 4.92857C0.444811 4.5 0.685068 4.125 0.987502 3.80357C1.30779 3.48214 1.68154 3.23211 2.10858 3.05357C2.53563 2.87503 2.99821 2.78571 3.49648 2.78571H22.2331C24.5285 2.78571 26.6548 3.18754 28.6121 3.99103C30.5694 4.79469 32.2598 5.91069 33.6833 7.33929C35.1068 8.74997 36.2188 10.4464 37.0196 12.4286C37.8381 14.3929 38.2473 16.5357 38.2473 18.8571V25.125ZM31.3078 18.8571C31.3078 17.5 31.0854 16.259 30.6406 15.1339C30.2135 14.009 29.5996 13.0536 28.799 12.2679C27.9982 11.4643 27.0373 10.8482 25.9164 10.4196C24.8132 9.9732 23.5854 9.75 22.2331 9.75H6.9395V34.2321H22.2331C23.5854 34.2321 24.8132 34.0179 25.9164 33.5893C27.0373 33.1429 27.9982 32.5268 28.799 31.741C29.5996 30.9375 30.2135 29.9822 30.6406 28.875C31.0854 27.75 31.3078 26.5 31.3078 25.125V18.8571ZM51.3257 6.29469H44.3862V0H51.3257V6.29469ZM51.3257 41.1964H44.3862V12.241H51.3257V41.1964ZM85.8892 31.4196C85.8892 32.6161 85.7381 33.6964 85.4357 34.6607C85.1334 35.6072 84.7328 36.4464 84.2349 37.1786C83.7369 37.8928 83.1587 38.5089 82.5002 39.0267C81.8417 39.5268 81.1473 39.9375 80.4179 40.259C79.7065 40.5804 78.9771 40.8214 78.2298 40.9821C77.5004 41.125 76.806 41.1964 76.1475 41.1964H57.3576V34.2321H76.0945C77.0374 34.2321 77.7489 33.991 78.2298 33.509C78.7097 33.0267 78.9506 32.3304 78.9506 31.4196C78.8609 29.5625 77.9274 28.6339 76.1475 28.6339H65.3915C63.8612 28.6339 62.5623 28.3661 61.4947 27.8304C60.427 27.2947 59.5552 26.625 58.879 25.8214C58.2207 25.0179 57.7402 24.1518 57.4377 23.2233C57.153 22.2946 57.0107 21.4286 57.0107 20.625C57.0107 19.0714 57.2865 17.7679 57.8381 16.7143C58.3897 15.6429 59.0836 14.7768 59.9199 14.1161C60.7562 13.4553 61.6637 12.9821 62.6424 12.6964C63.621 12.3928 64.5374 12.241 65.3915 12.241H82.4464V19.2053H65.4448C65.0889 19.2053 64.8043 19.25 64.5907 19.3393C64.395 19.4107 64.2438 19.5178 64.1371 19.6607C64.0481 19.7857 63.9947 19.9286 63.9768 20.0893C63.9591 20.2322 63.9502 20.375 63.9502 20.5179C63.9679 20.8035 64.0213 21.0267 64.1103 21.1875C64.1993 21.3482 64.3061 21.4643 64.4306 21.5357C64.573 21.6071 64.7242 21.6518 64.8844 21.6696C65.0623 21.6696 65.2313 21.6696 65.3915 21.6696H76.1475C77.9274 21.6696 79.4391 21.991 80.6853 22.6339C81.9305 23.2767 82.9358 24.0893 83.7011 25.0714C84.4663 26.0357 85.0181 27.0893 85.3563 28.2321C85.7116 29.375 85.8892 30.4375 85.8892 31.4196ZM126.699 41.1964H95.0443C94.5463 41.1964 94.0834 41.1071 93.6564 40.9286C93.2293 40.75 92.8561 40.5089 92.5358 40.2053C92.2335 39.8839 91.9926 39.509 91.8149 39.0804C91.6373 38.6518 91.5485 38.1875 91.5485 37.6875V2.78571H98.4871V34.2321H126.699V41.1964ZM162.411 31.4196C162.411 32.6161 162.26 33.6964 161.957 34.6607C161.655 35.6072 161.254 36.4464 160.756 37.1786C160.258 37.8928 159.679 38.5089 159.022 39.0267C158.363 39.5268 157.669 39.9375 156.939 40.259C156.228 40.5804 155.498 40.8214 154.751 40.9821C154.021 41.125 153.328 41.1964 152.669 41.1964H140.151C139.191 41.1964 138.141 41.0268 137.002 40.6875C135.863 40.3482 134.804 39.7947 133.826 39.0267C132.864 38.2411 132.055 37.2321 131.397 36C130.756 34.75 130.436 33.2232 130.436 31.4196V21.991C130.436 20.2053 130.756 18.6964 131.397 17.4643C132.055 16.2143 132.864 15.2054 133.826 14.4375C134.804 13.6518 135.863 13.0893 137.002 12.75C138.141 12.4107 139.191 12.241 140.151 12.241H152.669C154.448 12.241 155.961 12.5625 157.206 13.2053C158.452 13.8482 159.457 14.6607 160.223 15.6429C160.988 16.6071 161.539 17.6607 161.877 18.8036C162.233 19.9464 162.411 21.0089 162.411 21.991V31.4196ZM155.471 22.0447C155.471 21.0804 155.231 20.3661 154.751 19.9018C154.27 19.4375 153.576 19.2053 152.669 19.2053H140.204C139.279 19.2053 138.577 19.4464 138.097 19.9286C137.616 20.3929 137.376 21.0804 137.376 21.991V31.4196C137.376 32.3304 137.616 33.0267 138.097 33.509C138.577 33.991 139.279 34.2321 140.204 34.2321H152.669C153.612 34.2321 154.315 33.991 154.778 33.509C155.24 33.0267 155.471 32.3304 155.471 31.4196V22.0447ZM215.845 12.241C214.742 14.7232 213.55 17.1696 212.268 19.5804C210.987 21.9732 209.644 24.241 208.238 26.3839C206.851 28.5267 205.427 30.509 203.968 32.3304C202.509 34.1339 201.058 35.6964 199.618 37.0179C198.194 38.3214 196.797 39.3482 195.427 40.0982C194.075 40.8303 192.793 41.1964 191.583 41.1964C191.085 41.1964 190.623 41.1071 190.196 40.9286C189.769 40.75 189.395 40.5089 189.075 40.2053C188.754 39.8839 188.505 39.509 188.327 39.0804C188.15 38.6518 188.061 38.1875 188.061 37.6875V24.6964L174.288 40.1518C173.933 40.5089 173.541 40.7768 173.114 40.9553C172.704 41.1161 172.277 41.1964 171.833 41.1964C171.352 41.1964 170.899 41.1071 170.472 40.9286C170.063 40.75 169.698 40.5089 169.377 40.2053C169.057 39.8839 168.799 39.509 168.603 39.0804C168.425 38.6518 168.337 38.1875 168.337 37.6875V12.241H175.276V28.741L189.101 13.2321C189.6 12.7322 190.187 12.4197 190.863 12.2947C191.557 12.1518 192.233 12.2232 192.892 12.509C193.55 12.7767 194.066 13.2053 194.439 13.7947C194.831 14.3661 195.027 15 195.027 15.6964V32.25C196.522 30.8036 197.874 29.2767 199.084 27.6696C200.293 26.0625 201.415 24.4107 202.446 22.7143C203.496 21 204.475 19.2679 205.383 17.5179C206.308 15.75 207.206 13.9911 208.078 12.241H215.845Z" fill="#C6DEE7"/>
</svg>
