<svg width="17" height="16" viewBox="0 0 17 16" fill="none" xmlns="http://www.w3.org/2000/svg">
<path d="M3.86474 1.91906C4.24761 1.57 4.30138 0.959337 3.92808 0.600064C3.64164 0.324399 3.19553 0.291829 2.89393 0.550821C1.37244 1.85741 0.322416 3.64809 0.00893017 5.67187C-0.0658686 6.15475 0.328228 6.5641 0.816868 6.5641C1.27068 6.5641 1.63994 6.20866 1.72051 5.76205C1.99146 4.26011 2.76133 2.92506 3.86474 1.91906ZM15.1193 5.76345C15.1999 6.20925 15.5686 6.5641 16.0216 6.5641C16.5105 6.5641 16.9043 6.1537 16.8281 5.67077C16.5095 3.64905 15.4612 1.86003 13.9474 0.553951C13.6455 0.293408 13.1976 0.326422 12.9112 0.60399C12.5415 0.962324 12.5945 1.56829 12.9741 1.91616C14.0726 2.9228 14.8471 4.25949 15.1193 5.76345ZM13.5353 6.97436C13.5353 4.64643 12.3411 2.66888 10.2354 1.94192C9.92683 1.83539 9.69876 1.55723 9.69876 1.23077C9.69876 0.549744 9.12755 0 8.41992 0C7.7123 0 7.14109 0.549744 7.14109 1.23077C7.14109 1.55718 6.91293 1.83526 6.60423 1.94129C4.492 2.66682 3.30458 4.6383 3.30458 6.97436V10.226C3.30458 10.7697 3.08321 11.29 2.69145 11.667L1.77592 12.5481C1.66317 12.6566 1.59946 12.8064 1.59946 12.9629C1.59946 13.2808 1.85717 13.5385 2.17507 13.5385H14.6648C14.9827 13.5385 15.2404 13.2808 15.2404 12.9629C15.2404 12.8064 15.1767 12.6566 15.0639 12.5481L14.1484 11.667C13.7566 11.29 13.5353 10.7697 13.5353 10.226V6.97436ZM8.41992 16C8.53928 16 8.65011 15.9918 8.76095 15.9672C9.31511 15.8523 9.76697 15.4913 9.98863 14.999C10.1329 14.6659 9.82224 14.359 9.45923 14.359H8.41945C7.47592 14.359 6.72524 15.2947 7.54221 15.7667C7.7984 15.9147 8.09833 16 8.41992 16Z" fill="#48BCF9"/>
</svg>
