<svg width="112" height="36" viewBox="0 0 112 36" fill="none" xmlns="http://www.w3.org/2000/svg">
<foreignObject x="-4" y="-4" width="120" height="44"><div xmlns="http://www.w3.org/1999/xhtml" style="backdrop-filter:blur(2px);clip-path:url(#bgblur_0_3650_2902_clip_path);height:100%;width:100%"></div></foreignObject><rect data-figma-bg-blur-radius="4" width="112" height="36" rx="10" fill="#283553" fill-opacity="0.6"/>
<path d="M40.6761 25H36.4382V11.9091H40.8104C42.093 11.9091 43.1946 12.1712 44.1151 12.6953C45.0355 13.2152 45.7408 13.9631 46.2308 14.9389C46.7251 15.9105 46.9723 17.076 46.9723 18.4354C46.9723 19.799 46.723 20.9709 46.2244 21.951C45.7301 22.9311 45.0142 23.6854 44.0767 24.2138C43.1392 24.7379 42.0057 25 40.6761 25ZM38.4134 23.2741H40.5675C41.5646 23.2741 42.3935 23.0866 43.054 22.7116C43.7145 22.3324 44.2088 21.7848 44.5369 21.0689C44.8651 20.3487 45.0291 19.4709 45.0291 18.4354C45.0291 17.4084 44.8651 16.5369 44.5369 15.821C44.2131 15.1051 43.7294 14.5618 43.0859 14.1911C42.4425 13.8203 41.6435 13.6349 40.6889 13.6349H38.4134V23.2741ZM49.275 25V15.1818H51.1863V25H49.275ZM50.2402 13.6669C49.9078 13.6669 49.6223 13.5561 49.3837 13.3345C49.1493 13.1087 49.0321 12.8402 49.0321 12.5291C49.0321 12.2138 49.1493 11.9453 49.3837 11.7237C49.6223 11.4979 49.9078 11.3849 50.2402 11.3849C50.5726 11.3849 50.856 11.4979 51.0904 11.7237C51.329 11.9453 51.4483 12.2138 51.4483 12.5291C51.4483 12.8402 51.329 13.1087 51.0904 13.3345C50.856 13.5561 50.5726 13.6669 50.2402 13.6669ZM61.1147 17.5788L59.3825 17.8857C59.31 17.6641 59.195 17.4531 59.0373 17.2528C58.8839 17.0526 58.6751 16.8885 58.4109 16.7607C58.1467 16.6328 57.8164 16.5689 57.4201 16.5689C56.8789 16.5689 56.4272 16.6903 56.065 16.9332C55.7028 17.1719 55.5217 17.4808 55.5217 17.8601C55.5217 18.1882 55.6431 18.4524 55.886 18.6527C56.1289 18.853 56.521 19.017 57.0621 19.1449L58.6218 19.5028C59.5252 19.7116 60.1985 20.0334 60.6417 20.468C61.0849 20.9027 61.3065 21.4673 61.3065 22.1619C61.3065 22.75 61.136 23.2741 60.7951 23.7344C60.4585 24.1903 59.9876 24.5483 59.3825 24.8082C58.7816 25.0682 58.0849 25.1982 57.2923 25.1982C56.1928 25.1982 55.2958 24.9638 54.6012 24.495C53.9066 24.022 53.4805 23.3509 53.3228 22.4815L55.1701 22.2003C55.2852 22.6818 55.5217 23.0462 55.8796 23.2933C56.2376 23.5362 56.7042 23.6577 57.2795 23.6577C57.9059 23.6577 58.4066 23.5277 58.7816 23.2678C59.1566 23.0036 59.3441 22.6818 59.3441 22.3026C59.3441 21.9957 59.229 21.7379 58.9989 21.5291C58.7731 21.3203 58.4258 21.1626 57.957 21.0561L56.2951 20.6918C55.3789 20.483 54.7013 20.1506 54.2624 19.6946C53.8278 19.2386 53.6104 18.6612 53.6104 17.9624C53.6104 17.3828 53.7724 16.8757 54.0962 16.4411C54.4201 16.0064 54.8675 15.6676 55.4386 15.4247C56.0096 15.1776 56.6637 15.054 57.4009 15.054C58.462 15.054 59.2972 15.2841 59.9066 15.7443C60.516 16.2003 60.9187 16.8118 61.1147 17.5788ZM63.4078 25V15.1818H65.2424V16.7798H65.3638C65.5684 16.2386 65.9029 15.8168 66.3674 15.5142C66.8319 15.2074 67.388 15.054 68.0357 15.054C68.6919 15.054 69.2417 15.2074 69.6848 15.5142C70.1323 15.821 70.4625 16.2429 70.6756 16.7798H70.7779C71.0123 16.2557 71.3851 15.8381 71.8965 15.527C72.4078 15.2116 73.0172 15.054 73.7246 15.054C74.6152 15.054 75.3418 15.3331 75.9043 15.8913C76.4711 16.4496 76.7544 17.2912 76.7544 18.4162V25H74.8432V18.5952C74.8432 17.9304 74.6621 17.4489 74.2999 17.1506C73.9377 16.8523 73.5051 16.7031 73.0023 16.7031C72.3801 16.7031 71.8965 16.8949 71.5513 17.2784C71.2061 17.6577 71.0336 18.1456 71.0336 18.7422V25H69.1287V18.4737C69.1287 17.9411 68.9625 17.5128 68.6301 17.1889C68.2978 16.8651 67.8652 16.7031 67.3326 16.7031C66.9703 16.7031 66.6358 16.799 66.329 16.9908C66.0265 17.1783 65.7814 17.4403 65.5939 17.777C65.4107 18.1136 65.3191 18.5036 65.3191 18.9467V25H63.4078ZM79.3161 25V15.1818H81.2273V25H79.3161ZM80.2812 13.6669C79.9489 13.6669 79.6634 13.5561 79.4247 13.3345C79.1903 13.1087 79.0732 12.8402 79.0732 12.5291C79.0732 12.2138 79.1903 11.9453 79.4247 11.7237C79.6634 11.4979 79.9489 11.3849 80.2812 11.3849C80.6136 11.3849 80.897 11.4979 81.1314 11.7237C81.37 11.9453 81.4893 12.2138 81.4893 12.5291C81.4893 12.8402 81.37 13.1087 81.1314 13.3345C80.897 13.5561 80.6136 13.6669 80.2812 13.6669ZM91.1557 17.5788L89.4235 17.8857C89.351 17.6641 89.236 17.4531 89.0783 17.2528C88.9249 17.0526 88.7161 16.8885 88.4519 16.7607C88.1877 16.6328 87.8574 16.5689 87.4611 16.5689C86.9199 16.5689 86.4682 16.6903 86.106 16.9332C85.7438 17.1719 85.5627 17.4808 85.5627 17.8601C85.5627 18.1882 85.6841 18.4524 85.927 18.6527C86.1699 18.853 86.562 19.017 87.1032 19.1449L88.6628 19.5028C89.5662 19.7116 90.2395 20.0334 90.6827 20.468C91.1259 20.9027 91.3475 21.4673 91.3475 22.1619C91.3475 22.75 91.177 23.2741 90.8361 23.7344C90.4995 24.1903 90.0286 24.5483 89.4235 24.8082C88.8226 25.0682 88.1259 25.1982 87.3333 25.1982C86.2338 25.1982 85.3368 24.9638 84.6422 24.495C83.9476 24.022 83.5215 23.3509 83.3638 22.4815L85.2111 22.2003C85.3262 22.6818 85.5627 23.0462 85.9206 23.2933C86.2786 23.5362 86.7452 23.6577 87.3205 23.6577C87.9469 23.6577 88.4476 23.5277 88.8226 23.2678C89.1976 23.0036 89.3851 22.6818 89.3851 22.3026C89.3851 21.9957 89.2701 21.7379 89.04 21.5291C88.8141 21.3203 88.4668 21.1626 87.998 21.0561L86.3361 20.6918C85.4199 20.483 84.7424 20.1506 84.3034 19.6946C83.8688 19.2386 83.6515 18.6612 83.6515 17.9624C83.6515 17.3828 83.8134 16.8757 84.1373 16.4411C84.4611 16.0064 84.9086 15.6676 85.4796 15.4247C86.0506 15.1776 86.7047 15.054 87.4419 15.054C88.503 15.054 89.3382 15.2841 89.9476 15.7443C90.557 16.2003 90.9597 16.8118 91.1557 17.5788ZM100.806 17.5788L99.0739 17.8857C99.0014 17.6641 98.8864 17.4531 98.7287 17.2528C98.5753 17.0526 98.3665 16.8885 98.1023 16.7607C97.8381 16.6328 97.5078 16.5689 97.1115 16.5689C96.5703 16.5689 96.1186 16.6903 95.7564 16.9332C95.3942 17.1719 95.2131 17.4808 95.2131 17.8601C95.2131 18.1882 95.3345 18.4524 95.5774 18.6527C95.8203 18.853 96.2124 19.017 96.7536 19.1449L98.3132 19.5028C99.2166 19.7116 99.8899 20.0334 100.333 20.468C100.776 20.9027 100.998 21.4673 100.998 22.1619C100.998 22.75 100.827 23.2741 100.487 23.7344C100.15 24.1903 99.679 24.5483 99.0739 24.8082C98.473 25.0682 97.7763 25.1982 96.9837 25.1982C95.8842 25.1982 94.9872 24.9638 94.2926 24.495C93.598 24.022 93.1719 23.3509 93.0142 22.4815L94.8615 22.2003C94.9766 22.6818 95.2131 23.0462 95.571 23.2933C95.929 23.5362 96.3956 23.6577 96.9709 23.6577C97.5973 23.6577 98.098 23.5277 98.473 23.2678C98.848 23.0036 99.0355 22.6818 99.0355 22.3026C99.0355 21.9957 98.9205 21.7379 98.6903 21.5291C98.4645 21.3203 98.1172 21.1626 97.6484 21.0561L95.9865 20.6918C95.0703 20.483 94.3928 20.1506 93.9538 19.6946C93.5192 19.2386 93.3018 18.6612 93.3018 17.9624C93.3018 17.3828 93.4638 16.8757 93.7876 16.4411C94.1115 16.0064 94.5589 15.6676 95.13 15.4247C95.701 15.1776 96.3551 15.054 97.0923 15.054C98.1534 15.054 98.9886 15.2841 99.598 15.7443C100.207 16.2003 100.61 16.8118 100.806 17.5788Z" fill="#93B0C7"/>
<path d="M23.9687 23.9648L11.5391 11.5352" stroke="#93B0C7" stroke-width="2.5" stroke-linecap="round"/>
<path d="M11.5704 23.9648L24 11.5352" stroke="#93B0C7" stroke-width="2.5" stroke-linecap="round"/>
<defs>
<clipPath id="bgblur_0_3650_2902_clip_path" transform="translate(4 4)"><rect width="112" height="36" rx="10"/>
</clipPath></defs>
</svg>
